<?xml version="1.0" encoding="utf-8"?>
<!-- Generator: Adobe Illustrator 16.0.0, SVG Export Plug-In . SVG Version: 6.00 Build 0)  -->
<!DOCTYPE svg PUBLIC "-//W3C//DTD SVG 1.1//EN" "http://www.w3.org/Graphics/SVG/1.1/DTD/svg11.dtd">
<svg version="1.1" xmlns="http://www.w3.org/2000/svg" xmlns:xlink="http://www.w3.org/1999/xlink" x="0px" y="0px"
	 width="595.28px" height="841.89px" viewBox="0 0 595.28 841.89" enable-background="new 0 0 595.28 841.89" xml:space="preserve">
<g id="Layer_3">
	<rect x="14.495" y="21.567" fill="#FFFFFF" stroke="#000000" stroke-miterlimit="10" width="119.141" height="119.141"/>
</g>
<g id="Layer_1">
	<g>
		
			<path fill-rule="evenodd" clip-rule="evenodd" fill="none" stroke="#000000" stroke-width="2" stroke-linecap="round" stroke-linejoin="round" stroke-miterlimit="10" d="
			M75.858,61.819c-11.576,0-23.132,0-34.687,0c-7.007,0-8.482,1.359-8.528,8.553c-0.086,13.621-0.025,27.243-0.025,40.864
			c0,2.376,0,4.752,0,7.365c7.286,0,14.096,0,20.875,0C54.94,107.91,54.94,107.91,65.88,107.91c3.406,0,6.811,0,10.216,0"/>
		
			<path fill-rule="evenodd" clip-rule="evenodd" fill="none" stroke="#000000" stroke-width="2" stroke-linecap="round" stroke-linejoin="round" stroke-miterlimit="10" d="
			M74.303,61.819c11.577,0,23.132,0,34.687,0c7.008,0,8.483,1.359,8.528,8.553c0.086,13.621,0.025,27.243,0.025,40.864
			c0,2.376,0,4.752,0,7.365c-7.286,0-14.096,0-20.875,0c-1.447-10.691-1.447-10.691-12.387-10.691c-3.406,0-6.811,0-10.216,0"/>
		
			<rect x="54.347" y="71.027" fill-rule="evenodd" clip-rule="evenodd" fill="#F9EF6B" stroke="#000000" stroke-linecap="round" stroke-linejoin="round" stroke-miterlimit="10" width="10.583" height="3.801"/>
		
			<rect x="69.855" y="71.027" fill-rule="evenodd" clip-rule="evenodd" fill="#F9EF6B" stroke="#000000" stroke-linecap="round" stroke-linejoin="round" stroke-miterlimit="10" width="10.583" height="3.801"/>
		
			<rect x="85.363" y="71.027" fill-rule="evenodd" clip-rule="evenodd" fill="#F9EF6B" stroke="#000000" stroke-linecap="round" stroke-linejoin="round" stroke-miterlimit="10" width="10.583" height="3.801"/>
		
			<rect x="54.347" y="96.563" fill-rule="evenodd" clip-rule="evenodd" fill="#F9EF6B" stroke="#000000" stroke-linecap="round" stroke-linejoin="round" stroke-miterlimit="10" width="10.583" height="3.801"/>
		
			<rect x="69.855" y="96.563" fill-rule="evenodd" clip-rule="evenodd" fill="#F9EF6B" stroke="#000000" stroke-linecap="round" stroke-linejoin="round" stroke-miterlimit="10" width="10.583" height="3.801"/>
		
			<rect x="85.363" y="96.563" fill-rule="evenodd" clip-rule="evenodd" fill="#F9EF6B" stroke="#000000" stroke-linecap="round" stroke-linejoin="round" stroke-miterlimit="10" width="10.583" height="3.801"/>
	</g>
	
		<line fill="none" stroke="#000000" stroke-width="2" stroke-linecap="round" stroke-linejoin="round" stroke-miterlimit="10" x1="75.858" y1="67.521" x2="75.858" y2="33.309"/>
	
		<line fill="none" stroke="#000000" stroke-width="2" stroke-linecap="round" stroke-linejoin="round" stroke-miterlimit="10" x1="60.653" y1="67.521" x2="60.653" y2="47.564"/>
	
		<line fill="none" stroke="#000000" stroke-width="2" stroke-linecap="round" stroke-linejoin="round" stroke-miterlimit="10" x1="92.014" y1="67.521" x2="92.014" y2="47.564"/>
	
		<line fill="none" stroke="#000000" stroke-width="2" stroke-linecap="round" stroke-linejoin="round" stroke-miterlimit="10" x1="60.653" y1="105.059" x2="60.653" y2="129.292"/>
	
		<line fill="none" stroke="#000000" stroke-width="2" stroke-linecap="round" stroke-linejoin="round" stroke-miterlimit="10" x1="92.014" y1="104.583" x2="92.014" y2="129.292"/>
	
		<rect x="49.25" y="75.124" fill-rule="evenodd" clip-rule="evenodd" stroke="#000000" stroke-width="2" stroke-linecap="round" stroke-linejoin="round" stroke-miterlimit="10" width="49.892" height="21.382"/>
</g>
<g id="Layer_2">
	<g>
		<path d="M48.35,45.358v-6.63h1.32l1.57,4.694c0.144,0.438,0.25,0.764,0.316,0.981c0.075-0.241,0.193-0.596,0.353-1.063
			l1.587-4.613h1.181v6.63h-0.846v-5.549l-1.927,5.549h-0.792l-1.917-5.645v5.645H48.35z"/>
		<path d="M55.826,42.129c0-1.101,0.296-1.962,0.886-2.585c0.591-0.623,1.354-0.934,2.289-0.934c0.612,0,1.164,0.146,1.655,0.439
			c0.492,0.292,0.866,0.701,1.125,1.224c0.258,0.523,0.386,1.116,0.386,1.78c0,0.672-0.136,1.273-0.407,1.804
			c-0.271,0.531-0.656,0.933-1.154,1.206c-0.497,0.272-1.034,0.409-1.61,0.409c-0.625,0-1.182-0.151-1.674-0.452
			c-0.491-0.302-0.863-0.713-1.117-1.235C55.953,43.262,55.826,42.71,55.826,42.129z M56.73,42.143c0,0.799,0.214,1.428,0.644,1.888
			s0.969,0.69,1.617,0.69c0.66,0,1.204-0.232,1.631-0.697c0.426-0.464,0.64-1.123,0.64-1.977c0-0.54-0.091-1.011-0.273-1.413
			c-0.183-0.403-0.45-0.715-0.801-0.937s-0.746-0.332-1.183-0.332c-0.621,0-1.155,0.213-1.603,0.64
			C56.954,40.432,56.73,41.145,56.73,42.143z"/>
		<path d="M62.999,43.228l0.828-0.072c0.039,0.332,0.13,0.604,0.273,0.816c0.143,0.213,0.365,0.385,0.667,0.516
			c0.301,0.131,0.641,0.197,1.018,0.197c0.334,0,0.63-0.05,0.886-0.149c0.256-0.1,0.447-0.236,0.572-0.41
			c0.125-0.173,0.188-0.362,0.188-0.567c0-0.208-0.06-0.39-0.18-0.545c-0.121-0.155-0.32-0.286-0.598-0.392
			c-0.178-0.069-0.571-0.177-1.18-0.323c-0.609-0.146-1.036-0.284-1.28-0.414c-0.317-0.166-0.553-0.372-0.708-0.618
			c-0.155-0.246-0.232-0.521-0.232-0.825c0-0.334,0.095-0.647,0.285-0.938c0.19-0.291,0.467-0.512,0.832-0.663
			c0.365-0.15,0.771-0.226,1.217-0.226c0.491,0,0.925,0.079,1.3,0.237s0.664,0.392,0.866,0.699c0.202,0.308,0.31,0.656,0.325,1.045
			l-0.841,0.063c-0.046-0.419-0.199-0.736-0.459-0.95c-0.261-0.214-0.646-0.321-1.156-0.321c-0.531,0-0.917,0.098-1.16,0.292
			c-0.243,0.194-0.364,0.429-0.364,0.704c0,0.238,0.085,0.434,0.258,0.588c0.168,0.154,0.609,0.312,1.323,0.472
			c0.713,0.162,1.202,0.303,1.467,0.423c0.386,0.178,0.671,0.403,0.854,0.676c0.184,0.273,0.276,0.587,0.276,0.943
			c0,0.353-0.101,0.685-0.304,0.997c-0.202,0.312-0.492,0.555-0.87,0.729c-0.378,0.173-0.805,0.26-1.277,0.26
			c-0.6,0-1.103-0.087-1.508-0.262c-0.406-0.175-0.724-0.438-0.955-0.789C63.132,44.068,63.011,43.671,62.999,43.228z"/>
		<path d="M69.625,45.358v-6.63h0.877v6.63H69.625z"/>
	</g>
	<g>
		<path d="M53.676,135.902v-0.811l2.928-0.004v2.564c-0.45,0.359-0.913,0.628-1.391,0.809c-0.478,0.181-0.968,0.271-1.471,0.271
			c-0.679,0-1.296-0.145-1.851-0.436s-0.974-0.711-1.256-1.261s-0.424-1.165-0.424-1.844c0-0.672,0.14-1.3,0.422-1.883
			c0.281-0.583,0.686-1.016,1.213-1.299c0.528-0.283,1.136-0.424,1.825-0.424c0.5,0,0.952,0.081,1.356,0.243
			c0.404,0.162,0.72,0.387,0.949,0.677c0.23,0.289,0.404,0.667,0.524,1.131l-0.825,0.227c-0.104-0.352-0.232-0.628-0.387-0.83
			c-0.154-0.201-0.374-0.362-0.66-0.483c-0.286-0.121-0.604-0.181-0.952-0.181c-0.418,0-0.78,0.063-1.084,0.19
			c-0.305,0.128-0.551,0.295-0.738,0.503c-0.187,0.207-0.333,0.435-0.436,0.683c-0.176,0.428-0.264,0.891-0.264,1.391
			c0,0.616,0.106,1.132,0.318,1.546c0.212,0.415,0.521,0.723,0.927,0.924c0.405,0.202,0.836,0.302,1.292,0.302
			c0.396,0,0.782-0.076,1.159-0.229c0.377-0.152,0.664-0.315,0.858-0.488v-1.287H53.676z"/>
		<path d="M57.942,138.613V131.7h0.938l3.63,5.427V131.7h0.876v6.913H62.45l-3.631-5.432v5.432H57.942z"/>
		<path d="M64.925,138.613V131.7h2.381c0.538,0,0.948,0.034,1.23,0.1c0.396,0.091,0.734,0.256,1.014,0.495
			c0.364,0.308,0.637,0.702,0.818,1.181c0.18,0.479,0.271,1.027,0.271,1.643c0,0.525-0.062,0.99-0.184,1.396
			s-0.28,0.741-0.471,1.006c-0.191,0.266-0.401,0.475-0.629,0.627c-0.228,0.152-0.503,0.268-0.825,0.347s-0.692,0.118-1.11,0.118
			H64.925z M65.84,137.797h1.476c0.456,0,0.813-0.042,1.073-0.127s0.466-0.204,0.62-0.359c0.217-0.216,0.386-0.508,0.507-0.874
			c0.121-0.366,0.181-0.81,0.181-1.332c0-0.723-0.119-1.278-0.355-1.667c-0.237-0.388-0.526-0.648-0.865-0.78
			c-0.245-0.094-0.64-0.141-1.183-0.141H65.84V137.797z"/>
	</g>
	<g>
		<path d="M88.255,136.189l0.915,0.231c-0.191,0.751-0.536,1.324-1.035,1.719c-0.498,0.395-1.107,0.591-1.827,0.591
			c-0.744,0-1.351-0.151-1.818-0.455c-0.466-0.303-0.821-0.743-1.065-1.318c-0.244-0.575-0.366-1.192-0.366-1.853
			c0-0.72,0.138-1.348,0.413-1.884c0.274-0.536,0.666-0.943,1.174-1.221c0.508-0.278,1.067-0.417,1.676-0.417
			c0.691,0,1.273,0.176,1.745,0.528c0.472,0.352,0.799,0.847,0.985,1.485l-0.9,0.212c-0.161-0.503-0.394-0.869-0.698-1.099
			c-0.306-0.229-0.689-0.344-1.151-0.344c-0.532,0-0.975,0.127-1.333,0.382c-0.356,0.254-0.607,0.596-0.751,1.025
			c-0.145,0.429-0.217,0.872-0.217,1.328c0,0.587,0.086,1.1,0.256,1.539c0.172,0.439,0.438,0.767,0.8,0.983
			c0.361,0.217,0.752,0.325,1.173,0.325c0.513,0,0.947-0.147,1.302-0.443C87.889,137.209,88.129,136.771,88.255,136.189z"/>
		<path d="M90.259,138.613V131.7h0.915v6.097h3.404v0.816H90.259z"/>
		<path d="M95.629,138.613V131.7h0.915v3.428l3.432-3.428h1.241l-2.9,2.801l3.027,4.111h-1.207l-2.462-3.499l-1.131,1.103v2.396
			H95.629z"/>
	</g>
	<g>
		<path d="M65.262,29.128v-1.818h-1.805v-0.76h1.805v-1.805h0.769v1.805h1.805v0.76H66.03v1.818H65.262z"/>
		<path d="M68.74,28.45l0.814-0.108c0.094,0.461,0.253,0.794,0.478,0.997c0.225,0.204,0.498,0.306,0.821,0.306
			c0.383,0,0.706-0.133,0.97-0.398c0.264-0.266,0.395-0.594,0.395-0.986c0-0.374-0.122-0.682-0.366-0.925
			c-0.244-0.242-0.555-0.364-0.931-0.364c-0.154,0-0.346,0.03-0.575,0.09l0.091-0.714c0.054,0.006,0.098,0.009,0.131,0.009
			c0.347,0,0.658-0.091,0.936-0.271c0.277-0.181,0.416-0.46,0.416-0.837c0-0.298-0.101-0.545-0.303-0.742
			c-0.202-0.196-0.463-0.294-0.783-0.294c-0.316,0-0.58,0.1-0.791,0.298s-0.347,0.498-0.407,0.896l-0.814-0.145
			c0.099-0.545,0.326-0.968,0.678-1.268c0.353-0.3,0.791-0.45,1.316-0.45c0.362,0,0.694,0.078,0.999,0.233
			c0.305,0.155,0.538,0.367,0.699,0.635c0.162,0.269,0.242,0.554,0.242,0.855c0,0.286-0.077,0.547-0.23,0.782
			s-0.381,0.422-0.683,0.561c0.392,0.09,0.696,0.278,0.914,0.563c0.217,0.285,0.326,0.642,0.326,1.07
			c0,0.579-0.211,1.069-0.633,1.472c-0.422,0.402-0.956,0.604-1.601,0.604c-0.582,0-1.065-0.173-1.449-0.52
			C69.013,29.451,68.794,29.002,68.74,28.45z"/>
		<path d="M74.343,30.2v-0.927h0.927V30.2H74.343z"/>
		<path d="M76.465,28.45l0.814-0.108c0.093,0.461,0.252,0.794,0.478,0.997c0.225,0.204,0.498,0.306,0.82,0.306
			c0.383,0,0.707-0.133,0.97-0.398c0.264-0.266,0.396-0.594,0.396-0.986c0-0.374-0.123-0.682-0.367-0.925
			c-0.244-0.242-0.554-0.364-0.931-0.364c-0.154,0-0.346,0.03-0.575,0.09l0.091-0.714c0.055,0.006,0.098,0.009,0.132,0.009
			c0.346,0,0.658-0.091,0.935-0.271c0.278-0.181,0.417-0.46,0.417-0.837c0-0.298-0.101-0.545-0.303-0.742
			c-0.202-0.196-0.463-0.294-0.783-0.294c-0.315,0-0.579,0.1-0.791,0.298c-0.211,0.199-0.347,0.498-0.407,0.896l-0.813-0.145
			c0.099-0.545,0.326-0.968,0.678-1.268c0.353-0.3,0.791-0.45,1.316-0.45c0.361,0,0.694,0.078,0.999,0.233s0.537,0.367,0.699,0.635
			c0.161,0.269,0.242,0.554,0.242,0.855c0,0.286-0.077,0.547-0.231,0.782c-0.153,0.235-0.381,0.422-0.683,0.561
			c0.393,0.09,0.697,0.278,0.914,0.563c0.217,0.285,0.326,0.642,0.326,1.07c0,0.579-0.212,1.069-0.634,1.472
			c-0.422,0.402-0.955,0.604-1.601,0.604c-0.582,0-1.065-0.173-1.449-0.52C76.738,29.451,76.519,29.002,76.465,28.45z"/>
		<path d="M83.837,30.2l-2.57-6.63h0.951l1.723,4.817c0.138,0.386,0.253,0.748,0.347,1.085c0.103-0.362,0.222-0.724,0.358-1.085
			l1.79-4.817h0.897l-2.597,6.63H83.837z"/>
	</g>
	<g>
		<path d="M86.507,45.358v-6.63h0.9l3.482,5.205v-5.205h0.841v6.63h-0.899l-3.482-5.21v5.21H86.507z"/>
		<path d="M97.936,43.034l0.878,0.221c-0.185,0.721-0.515,1.271-0.993,1.648c-0.479,0.378-1.063,0.568-1.752,0.568
			c-0.715,0-1.297-0.146-1.744-0.437c-0.448-0.291-0.789-0.712-1.022-1.264c-0.233-0.552-0.35-1.144-0.35-1.777
			c0-0.69,0.131-1.292,0.396-1.807c0.264-0.514,0.639-0.905,1.126-1.171c0.487-0.267,1.023-0.4,1.607-0.4
			c0.663,0,1.221,0.169,1.673,0.506c0.452,0.338,0.767,0.813,0.945,1.425l-0.864,0.204c-0.153-0.482-0.376-0.833-0.669-1.054
			c-0.292-0.22-0.66-0.33-1.104-0.33c-0.509,0-0.936,0.122-1.277,0.366s-0.583,0.572-0.722,0.983s-0.208,0.836-0.208,1.273
			c0,0.564,0.083,1.056,0.248,1.477c0.164,0.42,0.42,0.735,0.766,0.943c0.347,0.208,0.723,0.312,1.126,0.312
			c0.492,0,0.908-0.142,1.249-0.425C97.585,44.012,97.816,43.591,97.936,43.034z"/>
	</g>
</g>
</svg>
